<?xml version="1.0" encoding="UTF-8"?>
<svg id="_圖層_2" data-name="圖層 2" xmlns="http://www.w3.org/2000/svg" viewBox="0 0 160.61 24.31">
  <defs>
    <style>
      .cls-1 {
        fill: #dc4370;
      }

      .cls-2 {
        fill: #ce436b;
      }
    </style>
  </defs>
  <g id="_圖層_1-2" data-name="圖層 1">
    <g>
      <g>
        <path class="cls-2" d="M14.94,10.67h8l-5.72,8c-1.26,1.77-2.78,3.1-4.56,3.99-1.78.89-3.3,1.34-4.58,1.34H2.73c-1.46,0-2.34-.52-2.63-1.57-.3-1.05.07-2.3,1.12-3.76L10.77,5.32c1.03-1.43,2.43-2.68,4.22-3.74,1.79-1.06,3.43-1.59,4.92-1.59h5.35c3.35,0,3.86,1.77,1.51,5.32h-2.67c1.06-1.77.8-2.65-.75-2.65h-2.67c-.73,0-1.55.26-2.45.78-.9.52-1.61,1.14-2.12,1.87l-9.55,13.35c-.52.73-.71,1.36-.55,1.88.16.52.6.78,1.33.78,1.76-.08,3.28-.97,4.57-2.65l3.83-5.35h-2.67l1.89-2.65Z"/>
        <path class="cls-2" d="M32.57,24L49.74,0h10.67c1.46,0,2.34.52,2.63,1.57s-.08,2.3-1.12,3.75l-.97,1.35c-1.12,1.56-2.44,2.78-3.96,3.67s-3.25,1.44-5.17,1.65c1.78,0,2.72.54,2.84,1.61.12,1.07-.32,2.31-1.33,3.72l-.97,1.35c-1.03,1.44-2.45,2.69-4.26,3.74-1.81,1.05-3.43,1.58-4.88,1.58h-10.67ZM39.81,21.33h2.67c.73,0,1.54-.26,2.45-.79.9-.53,1.61-1.15,2.12-1.86l1.91-2.67c1.28-1.78,1.02-2.68-.76-2.68h-2.68l-5.72,8ZM47.43,10.67h2.67c.73,0,1.54-.26,2.45-.79.91-.53,1.62-1.16,2.14-1.88l1.91-2.67c.52-.72.7-1.35.54-1.87-.16-.52-.6-.78-1.32-.78h-2.67l-5.72,8Z"/>
        <path class="cls-2" d="M73.22,16h-10.67l-1.91,2.67c-.51.72-.7,1.34-.55,1.86s.59.79,1.33.79h2.67c1.77,0,3.28-.88,4.55-2.65h2.67c-2.96,3.55-6,5.33-9.14,5.33h-5.35c-1.46,0-2.34-.52-2.63-1.57s.08-2.3,1.12-3.76l5.72-8c1.06-1.48,2.48-2.74,4.28-3.78,1.8-1.05,3.42-1.57,4.87-1.57h5.35c1.46,0,2.33.53,2.63,1.58.29,1.05-.09,2.31-1.13,3.77l-3.81,5.33ZM64.46,13.32h5.35l1.89-2.65c.53-.73.71-1.36.56-1.89-.15-.52-.59-.79-1.32-.79s-1.55.26-2.45.79c-.9.53-1.61,1.15-2.14,1.89l-1.89,2.65Z"/>
        <path class="cls-2" d="M90.27,0h5.33l-3.81,5.32h2.67l-1.91,2.67h-2.67l-7.64,10.68c-.61.86-.8,1.51-.56,1.97.24.45.6.68,1.09.68h.25l-1.91,2.67h-2.67c-1.47,0-2.35-.52-2.64-1.57s.08-2.3,1.12-3.76l7.64-10.68h-2.67l1.91-2.67h2.67l3.81-5.32Z"/>
        <path class="cls-2" d="M101.55,10.67h8l-5.72,8c-1.26,1.77-2.78,3.1-4.56,3.99-1.78.89-3.3,1.34-4.58,1.34h-5.35c-1.46,0-2.34-.52-2.63-1.57s.08-2.3,1.12-3.76l9.55-13.35c1.03-1.43,2.43-2.68,4.22-3.74,1.79-1.06,3.42-1.59,4.92-1.59h5.35c3.35,0,3.85,1.77,1.51,5.32h-2.67c1.06-1.77.8-2.65-.75-2.65h-2.67c-.73,0-1.55.26-2.45.78-.9.52-1.61,1.14-2.12,1.87l-9.55,13.35c-.52.73-.71,1.36-.55,1.88.16.52.6.78,1.33.78,1.76-.08,3.28-.97,4.57-2.65l3.83-5.35h-2.68l1.9-2.65Z"/>
        <path class="cls-2" d="M137.5,13.32l1.89-2.65c.53-.73.71-1.36.56-1.89-.15-.52-.59-.79-1.32-.79h-2.67c-1.58,0-3.1.89-4.57,2.68h-2.67c2.96-3.57,6.01-5.35,9.15-5.35h5.35c1.46,0,2.33.53,2.63,1.58.29,1.05-.09,2.31-1.13,3.77l-9.54,13.33h-5.33l1.91-2.67c-1.48,1.78-3.01,2.67-4.59,2.67h-2.67c-1.46,0-2.34-.52-2.63-1.57s.08-2.3,1.12-3.76l.02-.03c1.04-1.46,2.46-2.71,4.26-3.76,1.8-1.05,3.42-1.57,4.87-1.57h5.35ZM135.58,16h-2.67c-.73,0-1.55.26-2.45.78-.9.52-1.61,1.14-2.12,1.87l-.02.03c-.51.72-.7,1.34-.55,1.86s.59.79,1.33.79,1.56-.26,2.46-.79c.9-.53,1.6-1.15,2.11-1.86l1.91-2.67Z"/>
        <path class="cls-2" d="M138.11,24L155.28,0h5.33l-17.17,24h-5.33Z"/>
      </g>
      <g>
        <path class="cls-1" d="M123.72,7.52c-.67-.67-1.6-1-2.68-1.04.1.12.19.26.23.43.49,1.15-1.06,2.24-.36,3.13.09.1.2.12.34.15,1.58.28,1.43,2.25.69,3.19-.56.93-1.98,1.19-2.24,2.32-.05.19-.05.37,0,.48.33,1.21-.42,2.4-1.32,3.06-.57.42-1.4.79-2.34.51-.19-.08-.64.02-1,.28-.45.28-.66.79-.97,1.2-.85,1.3-3.46,2.02-4.09.13,0,0-.09-.41-.09-.41-.12-.42-.71-.31-1.06-.15-.49.31-1.15.47-1.72.37-.06-.32-.09-.66-.08-1.02.15.07.35.09.63.02.93-.42,1.89-1.16,3.02-.25.32.27.45.66.54,1.04.05.12.09.15.2.19.93.15,1.57-.82,1.98-1.54.76-.92,1.73-1.63,3.12-1.28.61.2,1.63-.66,1.77-1.29.13-.6-.17-1.17.1-1.74.25-.74.73-1.31,1.32-1.73.78-.39,1.87-1.11,1.73-2.08-.05-.35-.38-.37-.65-.48-.2-.08-.38-.22-.52-.38-.54-.64-.39-1.5-.03-2.14.31-.5.57-.87.46-1.41-.09-.38-.38-.54-.72-.56.37-.05.73-.06,1.08-.05-2.66-.1-6.26,1.6-9.33,4.67-4.32,4.32-5.95,9.7-3.63,12.02s7.69.69,12.02-3.63,5.95-9.7,3.63-12.02ZM119.22,6.65c-.14.05-.28.12-.4.19-.29.14-.63.22-.97.21.47-.17.92-.31,1.37-.41ZM113.69,12.96c1.81-1.81,3.73-2.84,4.28-2.28.55.55-.47,2.47-2.28,4.28-1.81,1.81-3.73,2.84-4.28,2.28-.55-.55.47-2.47,2.28-4.28Z"/>
        <g>
          <path class="cls-1" d="M38.77,9.7c-.19-.79-.62-1.36-1.29-1.7-.67-.34-1.53-.51-2.58-.51s-2.23.18-3.42.54-2.37.92-3.54,1.68c-1.34.87-2.51,1.78-3.52,2.73-1.01.96-1.98,2.12-2.92,3.47-.84,1.21-1.44,2.35-1.81,3.43s-.45,2.04-.24,2.9c.16.65.59,1.15,1.27,1.52.68.37,1.54.55,2.56.55s2.11-.18,3.28-.53c1.17-.35,2.31-.87,3.44-1.55,1.43-.87,2.69-1.85,3.78-2.93s2.05-2.22,2.88-3.41c.92-1.32,1.55-2.5,1.88-3.53.34-1.03.41-1.92.23-2.66ZM33.35,17.74c-.94,2.3-3.37,3.48-5.41,2.64-2.04-.84-2.93-3.38-1.99-5.68s3.37-3.48,5.41-2.64,2.93,3.38,1.99,5.68Z"/>
          <circle class="cls-1" cx="30.15" cy="17.22" r="2.5"/>
        </g>
      </g>
    </g>
  </g>
</svg>