<?xml version="1.0" encoding="UTF-8"?>
<svg id="_圖層_2" data-name="圖層 2" xmlns="http://www.w3.org/2000/svg" viewBox="0 0 33.5 38.35">
  <defs>
    <style>
      .cls-1 {
        fill: #dc4370;
      }

      .cls-2 {
        fill: #ce436b;
      }
    </style>
  </defs>
  <g id="_圖層_1-2" data-name="圖層 1">
    <g>
      <path class="cls-2" d="M26.24,6.67c-1.33-1.91-2.17-3.47-3.38-5.27.33.59,1.57.87,2.17.14.15-.17.27-.37.33-.59-.12.37-.25.75-.4,1.11-.78,1.65-2,3.94-4.07,4.05,0,0-.07-.19-.07-.19.96-.55,1.35-1.81,1.78-2.79.3-.77.57-1.66.79-2.46,0,0,.06-.21.06-.21.08-.45.73-.63,1.01-.25.1.14.26.44.36.58.99,1.8,1.58,3.82,1.63,5.88,0,0-.2,0-.2,0h0Z"/>
      <path class="cls-2" d="M5.92,16.81c-2.62-.85-4.54-3.05-5.54-5.54-.04-.1-.22-.61-.25-.7-.53-1.32.6-2.94,2.03-2.94.38-.02.75.07,1.09.24,1.55.77,3.04,1.68,4.54,2.54.59.33,1.1.66,1.82.74l.1.17c-1.37.56-2.82-.04-4.14-.42-.96-.32-1.99-.75-2.92-1.16-.28-.13-.48-.25-.63.02-.08.14.17.67.2.86.78,2.27,2.13,4.35,3.83,6.03,0,0-.13.15-.13.15h0Z"/>
      <polygon class="cls-1" points="23.74 28.01 16.12 20.76 17.29 21.55 24.97 25.59 23.74 28.01"/>
      <polygon class="cls-1" points="20.39 26.88 30.52 11.56 32.12 13.61 21.79 28.67 20.39 26.88"/>
      <path class="cls-2" d="M13.36,38.35C.08,29.89,5.74,9.25,21.03,7.49c4.55-.61,9.27.84,12.48,3.78-3.9-1.88-8.18-2.39-12.09-1.47-13.04,3.01-17.17,18.91-8.05,28.55h0Z"/>
    </g>
  </g>
</svg>