<?xml version="1.0" encoding="UTF-8"?>
<svg id="_圖層_2" data-name="圖層 2" xmlns="http://www.w3.org/2000/svg" viewBox="0 0 178.19 39.01">
  <defs>
    <style>
      .cls-1, .cls-2 {
        fill: #fff;
      }

      .cls-2 {
        font-family: Skia-BlackCondensed, Skia;
        font-size: 38.96px;
        font-variation-settings: 'wght' 3, 'wdth' 0;
        font-weight: 800;
        letter-spacing: .08em;
      }
    </style>
  </defs>
  <g id="_圖層_1-2" data-name="圖層 1">
    <g>
      <text class="cls-2" transform="translate(8.71 26.46) scale(.82) skewX(-34.77)"><tspan x="0" y="0" xml:space="preserve">G  BetG  al</tspan></text>
      <path class="cls-1" d="M136.76,10.01c-.67-.67-1.6-1-2.68-1.04,.1,.12,.19,.26,.23,.43,.49,1.15-1.06,2.24-.36,3.13,.09,.1,.2,.12,.34,.15,1.58,.28,1.43,2.25,.69,3.19-.56,.93-1.98,1.19-2.24,2.32-.05,.19-.05,.37,0,.48,.33,1.21-.42,2.4-1.32,3.06-.57,.42-1.4,.79-2.34,.51-.19-.08-.64,.02-1,.28-.45,.28-.66,.79-.97,1.2-.85,1.3-3.46,2.02-4.09,.13,0,0-.09-.41-.09-.41-.12-.42-.71-.31-1.06-.15-.49,.31-1.15,.47-1.72,.37-.06-.32-.09-.66-.08-1.02,.15,.07,.35,.09,.63,.02,.93-.42,1.89-1.16,3.02-.25,.32,.27,.45,.66,.54,1.04,.05,.12,.09,.15,.2,.19,.93,.15,1.57-.82,1.98-1.54,.76-.92,1.73-1.63,3.12-1.28,.61,.2,1.63-.66,1.77-1.29,.13-.6-.17-1.17,.1-1.74,.25-.74,.73-1.31,1.32-1.73,.78-.39,1.87-1.11,1.73-2.08-.05-.35-.38-.37-.65-.48-.2-.08-.38-.22-.52-.38-.54-.64-.39-1.5-.03-2.14,.31-.5,.57-.87,.46-1.41-.09-.38-.38-.54-.72-.56,.37-.05,.73-.06,1.08-.05-2.66-.1-6.26,1.6-9.33,4.67-4.32,4.32-5.95,9.7-3.63,12.02s7.69,.69,12.02-3.63,5.95-9.7,3.63-12.02Zm-4.5-.87c-.14,.05-.28,.12-.4,.19-.29,.14-.63,.22-.97,.21,.47-.17,.92-.31,1.37-.41Zm-5.53,6.3c1.81-1.81,3.73-2.84,4.28-2.28,.55,.55-.47,2.47-2.28,4.28-1.81,1.81-3.73,2.84-4.28,2.28-.55-.55,.47-2.47,2.28-4.28Z"/>
      <g>
        <path class="cls-1" d="M50.81,12.18c-.19-.79-.62-1.36-1.29-1.7-.67-.34-1.53-.51-2.58-.51s-2.23,.18-3.42,.54-2.37,.92-3.54,1.68c-1.34,.87-2.51,1.78-3.52,2.73-1.01,.96-1.98,2.12-2.92,3.47-.84,1.21-1.44,2.35-1.81,3.43s-.45,2.04-.24,2.9c.16,.65,.59,1.15,1.27,1.52,.68,.37,1.54,.55,2.56,.55s2.11-.18,3.28-.53c1.17-.35,2.31-.87,3.44-1.55,1.43-.87,2.69-1.85,3.78-2.93s2.05-2.22,2.88-3.41c.92-1.32,1.55-2.5,1.88-3.53,.34-1.03,.41-1.92,.23-2.66Zm-5.42,8.04c-.94,2.3-3.37,3.48-5.41,2.64-2.04-.84-2.93-3.38-1.99-5.68s3.37-3.48,5.41-2.64,2.93,3.38,1.99,5.68Z"/>
        <circle class="cls-1" cx="42.19" cy="19.71" r="2.5"/>
      </g>
      <path class="cls-1" d="M52.62,12.83c1.05-1.46,1.97-2.75,2.62-4.36,.01-.02,.03-.08,0,.02-.07,.27,.04,.48,.14,.57,.1,.09,.28,.16,.49,.11-1.74,.32-4.2,.8-5.59-.59,0,0,.06-.08,.06-.08,1.29,.66,2.88,.18,4.24-.04,0,0,.71-.16,.71-.16,.24-.06,.59-.19,.78,.03,.4,.4-.21,1.02-.36,1.43-.76,1.26-1.79,2.35-3.02,3.16,0,0-.05-.09-.05-.09h0Z"/>
      <path class="cls-1" d="M39.55,10.06c-1-1.55-1.16-3.57-.64-5.33,.02-.06,.07-.23,.09-.29,.12-.51,.75-.89,1.16-.85,.38,0,.8,.17,1.06,.56,.12,.19,.45,.7,.58,.9,.77,1.1,1.37,2.55,2.48,3.34,0,0,0,.1,0,.1-.51-.07-.93-.38-1.3-.69-.91-.8-1.66-1.81-2.36-2.8-.1-.13-.23-.44-.44-.41-.24-.02-.27,.29-.33,.44-.53,1.6-.56,3.36-.19,5,0,0-.1,.03-.1,.03h0Z"/>
    </g>
  </g>
</svg>