<?xml version="1.0" encoding="UTF-8"?>
<svg id="_圖層_2" data-name="圖層 2" xmlns="http://www.w3.org/2000/svg" viewBox="0 0 79.07 49.5">
  <defs>
    <style>
      .cls-1 {
        fill: #dc4370;
      }

      .cls-2, .cls-3 {
        fill: #ce436b;
      }

      .cls-3 {
        font-family: Krungthep, Krungthep;
        font-size: 39.35px;
        letter-spacing: -.08em;
      }
    </style>
  </defs>
  <g id="_圖層_1-2" data-name="圖層 1">
    <g>
      <text class="cls-3" transform="translate(21.48 36.47) scale(.81) skewX(-35.59)"><tspan x="0" y="0" xml:space="preserve">G   </tspan></text>
      <g>
        <g>
          <path class="cls-2" d="M26.24,6.67c-1.33-1.91-2.17-3.47-3.38-5.27.33.59,1.57.87,2.17.14.15-.17.27-.37.33-.59-.12.37-.25.75-.4,1.11-.78,1.65-2,3.94-4.07,4.05,0,0-.07-.19-.07-.19.96-.55,1.35-1.81,1.78-2.79.3-.77.57-1.66.79-2.46,0,0,.06-.21.06-.21.08-.45.73-.63,1.01-.25.1.14.26.44.36.58.99,1.8,1.58,3.82,1.63,5.88,0,0-.2,0-.2,0h0Z"/>
          <path class="cls-2" d="M5.92,16.81c-2.62-.85-4.54-3.05-5.54-5.54-.04-.1-.22-.61-.25-.7-.53-1.32.6-2.94,2.03-2.94.38-.02.75.07,1.09.24,1.55.77,3.04,1.68,4.54,2.54.59.33,1.1.66,1.82.74l.1.17c-1.37.56-2.82-.04-4.14-.42-.96-.32-1.99-.75-2.92-1.16-.28-.13-.48-.25-.63.02-.08.14.17.67.2.86.78,2.27,2.13,4.35,3.83,6.03,0,0-.13.15-.13.15h0Z"/>
          <polygon class="cls-1" points="23.74 28.01 16.12 20.76 17.29 21.55 24.97 25.59 23.74 28.01"/>
          <polygon class="cls-1" points="20.39 26.88 30.52 11.56 32.12 13.61 21.79 28.67 20.39 26.88"/>
          <path class="cls-2" d="M13.36,38.35C.08,29.89,5.74,9.25,21.03,7.49c4.55-.61,9.27.84,12.48,3.78-3.9-1.88-8.18-2.39-12.09-1.47-13.04,3.01-17.17,18.91-8.05,28.55h0Z"/>
        </g>
        <g>
          <path class="cls-1" d="M65.52,22.17c-.19-.79-.62-1.36-1.29-1.7-.67-.34-1.53-.51-2.58-.51s-2.23.18-3.42.54-2.37.92-3.54,1.68c-1.34.87-2.51,1.78-3.52,2.73-1.01.96-1.98,2.12-2.92,3.47-.84,1.21-1.44,2.35-1.81,3.43s-.45,2.04-.24,2.9c.16.65.59,1.15,1.27,1.52.68.37,1.54.55,2.56.55s2.11-.18,3.28-.53c1.17-.35,2.31-.87,3.44-1.55,1.43-.87,2.69-1.85,3.78-2.93s2.05-2.22,2.88-3.41c.92-1.32,1.55-2.5,1.88-3.53.34-1.03.41-1.92.23-2.66ZM60.1,30.21c-.94,2.3-3.37,3.48-5.41,2.64-2.04-.84-2.93-3.38-1.99-5.68s3.37-3.48,5.41-2.64,2.93,3.38,1.99,5.68Z"/>
          <circle class="cls-1" cx="56.9" cy="29.69" r="2.5"/>
        </g>
      </g>
    </g>
  </g>
</svg>